<?xml version="1.0" standalone="no"?>
<svg xmlns:xlink="http://www.w3.org/1999/xlink" id="wave" style="transform:rotate(0deg); transition: 0.3s" viewBox="0 0 1440 430" version="1.1" xmlns="http://www.w3.org/2000/svg"><defs><linearGradient id="sw-gradient-0" x1="0" x2="0" y1="1" y2="0"><stop stop-color="rgba(255, 255, 255, 1)" offset="0%"/><stop stop-color="rgba(0, 0, 208, 0.748)" offset="100%"/></linearGradient></defs><path style="transform:translate(0, 0px); opacity:1" fill="url(#sw-gradient-0)" d="M0,172L40,143.3C80,115,160,57,240,64.5C320,72,400,143,480,172C560,201,640,186,720,179.2C800,172,880,172,960,193.5C1040,215,1120,258,1200,272.3C1280,287,1360,272,1440,286.7C1520,301,1600,344,1680,344C1760,344,1840,301,1920,301C2000,301,2080,344,2160,301C2240,258,2320,129,2400,71.7C2480,14,2560,29,2640,50.2C2720,72,2800,100,2880,107.5C2960,115,3040,100,3120,93.2C3200,86,3280,86,3360,86C3440,86,3520,86,3600,136.2C3680,186,3760,287,3840,322.5C3920,358,4000,330,4080,265.2C4160,201,4240,100,4320,100.3C4400,100,4480,201,4560,222.2C4640,244,4720,186,4800,200.7C4880,215,4960,301,5040,286.7C5120,272,5200,158,5280,121.8C5360,86,5440,129,5520,179.2C5600,229,5680,287,5720,315.3L5760,344L5760,430L5720,430C5680,430,5600,430,5520,430C5440,430,5360,430,5280,430C5200,430,5120,430,5040,430C4960,430,4880,430,4800,430C4720,430,4640,430,4560,430C4480,430,4400,430,4320,430C4240,430,4160,430,4080,430C4000,430,3920,430,3840,430C3760,430,3680,430,3600,430C3520,430,3440,430,3360,430C3280,430,3200,430,3120,430C3040,430,2960,430,2880,430C2800,430,2720,430,2640,430C2560,430,2480,430,2400,430C2320,430,2240,430,2160,430C2080,430,2000,430,1920,430C1840,430,1760,430,1680,430C1600,430,1520,430,1440,430C1360,430,1280,430,1200,430C1120,430,1040,430,960,430C880,430,800,430,720,430C640,430,560,430,480,430C400,430,320,430,240,430C160,430,80,430,40,430L0,430Z"/></svg>